HIERARCHY
ROOT hip
{
  OFFSET 0 0 0
  CHANNELS 6 Xposition Yposition Zposition Zrotation Yrotation Xrotation
  JOINT abdomen
  {
    OFFSET 0 20.6881 -0.73152
    CHANNELS 3 Zrotation Xrotation Yrotation
    JOINT chest
    {
      OFFSET 0 11.7043 -0.48768
      CHANNELS 3 Zrotation Xrotation Yrotation
      JOINT neck
      {
        OFFSET 0 22.1894 -2.19456
        CHANNELS 3 Zrotation Xrotation Yrotation
        JOINT head
        {
          OFFSET -0.24384 7.07133 1.2192
          CHANNELS 3 Zrotation Xrotation Yrotation
          JOINT leftEye
          {
            OFFSET 4.14528 8.04674 8.04672
            CHANNELS 3 Zrotation Xrotation Yrotation
            End Site
            {
              OFFSET 1 0 0
            }
          }
          JOINT rightEye
          {
            OFFSET -3.6576 8.04674 8.04672
            CHANNELS 3 Zrotation Xrotation Yrotation
            End Site
            {
              OFFSET 1 0 0
            }
          }
        }
      }
      JOINT rCollar
      {
        OFFSET -2.68224 19.2634 -4.8768
        CHANNELS 3 Zrotation Xrotation Yrotation
        JOINT rShldr
        {
          OFFSET -8.77824 -1.95073 1.46304
          CHANNELS 3 Zrotation Xrotation Yrotation
          JOINT rForeArm
          {
            OFFSET -28.1742 -1.7115 0.48768
            CHANNELS 3 Zrotation Xrotation Yrotation
            JOINT rHand
            {
              OFFSET -22.5879 0.773209 7.07136
              CHANNELS 3 Zrotation Xrotation Yrotation
              JOINT rThumb1
              {
                OFFSET -1.2192 -0.487915 3.41376
                CHANNELS 3 Zrotation Xrotation Yrotation
                JOINT rThumb2
                {
                  OFFSET -3.37035 -0.52449 3.41376
                  CHANNELS 3 Zrotation Xrotation Yrotation
                  End Site
                  {
                    OFFSET -1.78271 -1.18214 1.43049
                  }
                }
              }
              JOINT rIndex1
              {
                OFFSET -7.75947 0.938293 5.60832
                CHANNELS 3 Zrotation Xrotation Yrotation
                JOINT rIndex2
                {
                  OFFSET -2.54057 -0.884171 1.56538
                  CHANNELS 3 Zrotation Xrotation Yrotation
                  End Site
                  {
                    OFFSET -1.62519 -0.234802 1.16502
                  }
                }
              }
              JOINT rMid1
              {
                OFFSET -8.24714 1.18213 3.41376
                CHANNELS 3 Zrotation Xrotation Yrotation
                JOINT rMid2
                {
                  OFFSET -3.10165 -0.590103 1.0647
                  CHANNELS 3 Zrotation Xrotation Yrotation
                  End Site
                  {
                    OFFSET -2.48547 -0.328903 0.83742
                  }
                }
              }
              JOINT rRing1
              {
                OFFSET -8.82822 0.546677 1.51678
                CHANNELS 3 Zrotation Xrotation Yrotation
                JOINT rRing2
                {
                  OFFSET -2.60934 -0.819778 -0.0198488
                  CHANNELS 3 Zrotation Xrotation Yrotation
                  End Site
                  {
                    OFFSET -2.33842 -0.294052 0.168128
                  }
                }
              }
              JOINT rPinky1
              {
                OFFSET -8.27202 -0.0477905 -0.4584
                CHANNELS 3 Zrotation Xrotation Yrotation
                JOINT rPinky2
                {
                  OFFSET -1.82734 -0.647385 -0.700984
                  CHANNELS 3 Zrotation Xrotation Yrotation
                  End Site
                  {
                    OFFSET -1.69225 -0.51767 -0.607171
                  }
                }
              }
            }
          }
        }
      }
      JOINT lCollar
      {
        OFFSET 2.68224 19.2634 -4.8768
        CHANNELS 3 Zrotation Xrotation Yrotation
        JOINT lShldr
        {
          OFFSET 8.77824 -1.95073 1.46304
          CHANNELS 3 Zrotation Xrotation Yrotation
          JOINT lForeArm
          {
            OFFSET 28.1742 -1.7115 0.48768
            CHANNELS 3 Zrotation Xrotation Yrotation
            JOINT lHand
            {
              OFFSET 22.5879 0.773209 7.07136
              CHANNELS 3 Zrotation Xrotation Yrotation
              JOINT lThumb1
              {
                OFFSET 1.2192 -0.487915 3.41376
                CHANNELS 3 Zrotation Xrotation Yrotation
                JOINT lThumb2
                {
                  OFFSET 3.37035 -0.52449 3.41376
                  CHANNELS 3 Zrotation Xrotation Yrotation
                  End Site
                  {
                    OFFSET 1.78271 -1.18214 1.43049
                  }
                }
              }
              JOINT lIndex1
              {
                OFFSET 7.75947 0.938293 5.60832
                CHANNELS 3 Zrotation Xrotation Yrotation
                JOINT lIndex2
                {
                  OFFSET 2.54057 -0.884171 1.56538
                  CHANNELS 3 Zrotation Xrotation Yrotation
                  End Site
                  {
                    OFFSET 1.62519 -0.234802 1.16502
                  }
                }
              }
              JOINT lMid1
              {
                OFFSET 8.24714 1.18213 3.41376
                CHANNELS 3 Zrotation Xrotation Yrotation
                JOINT lMid2
                {
                  OFFSET 3.10165 -0.590103 1.0647
                  CHANNELS 3 Zrotation Xrotation Yrotation
                  End Site
                  {
                    OFFSET 2.48547 -0.328903 0.83742
                  }
                }
              }
              JOINT lRing1
              {
                OFFSET 8.82822 0.546677 1.51678
                CHANNELS 3 Zrotation Xrotation Yrotation
                JOINT lRing2
                {
                  OFFSET 2.60934 -0.819778 -0.0198488
                  CHANNELS 3 Zrotation Xrotation Yrotation
                  End Site
                  {
                    OFFSET 2.33842 -0.294052 0.168128
                  }
                }
              }
              JOINT lPinky1
              {
                OFFSET 8.27202 -0.0477905 -0.4584
                CHANNELS 3 Zrotation Xrotation Yrotation
                JOINT lPinky2
                {
                  OFFSET 1.82734 -0.647385 -0.700984
                  CHANNELS 3 Zrotation Xrotation Yrotation
                  End Site
                  {
                    OFFSET 1.69225 -0.51767 -0.607171
                  }
                }
              }
            }
          }
        }
      }
    }
  }
  JOINT rButtock
  {
    OFFSET -8.77824 4.35084 1.2192
    CHANNELS 3 Zrotation Xrotation Yrotation
    JOINT rThigh
    {
      OFFSET 0 -1.70687 -2.19456
      CHANNELS 3 Zrotation Xrotation Yrotation
      JOINT rShin
      {
        OFFSET 0 -36.8199 0.73152
        CHANNELS 3 Zrotation Xrotation Yrotation
        JOINT rFoot
        {
          OFFSET 0.73152 -45.1104 -5.12064
          CHANNELS 3 Zrotation Xrotation Yrotation
          End Site
          {
            OFFSET -1.1221 -3.69964 12.103
          }
        }
      }
    }
  }
  JOINT lButtock
  {
    OFFSET 8.77824 4.35084 1.2192
    CHANNELS 3 Zrotation Xrotation Yrotation
    JOINT lThigh
    {
      OFFSET 0 -1.70687 -2.19456
      CHANNELS 3 Zrotation Xrotation Yrotation
      JOINT lShin
      {
        OFFSET 0 -36.8199 0.73152
        CHANNELS 3 Zrotation Xrotation Yrotation
        JOINT lFoot
        {
          OFFSET -0.73152 -45.1104 -5.12064
          CHANNELS 3 Zrotation Xrotation Yrotation
          End Site
          {
            OFFSET 1.1221 -3.69964 12.103
          }
        }
      }
    }
  }
}
MOTION
Frames:	4
Frame Time:	0.00833333
1.474 57.9356 88.3643 -4.792556 -11.450761 12.503631 -4.784348 12.920288 0.877406 4.364122 -9.370096 12.482749 7.650365 24.139506 106.695722 -40.615861 15.013914 -102.407664 -0.001738 0.0 -0.000336 -0.001738 0.0 -0.000336 -142.97355 39.431273 147.389221 -80.598706 -73.23331 -22.424891 8.013653 -56.674213 45.888723 -8.660966 28.689706 1.4728 9.727271 -9.718082 -0.678276 -38.518754 28.985133 29.733777 -166.821204 -43.973769 122.062406 -70.509487 57.293753 56.093071 -0.057096 0.168078 0.030879 -1.307349 12.639604 2.167645 -145.118633 0.310306 -179.225315 8.755874 -14.063886 -10.95806 -157.331499 57.246765 -150.509528 -94.764255 -50.433411 -93.144819 44.040038 64.187242 -46.709912 -77.871694 -10.015949 -150.965564 107.631907 -62.605305 -88.062966 -166.432736 -44.063131 -139.919241 93.743338 37.963573 -53.548755 3.200225 -17.178846 -26.643103 53.616321 41.563962 -42.9052 -122.937702 -63.160516 -70.031361 -1.280118 -3.803291 0.680007 13.38235 36.40955 -10.633501 145.120236 0.226492 179.19973 156.238491 63.997245 -172.280119 -4.123318 11.850794 -3.734871 128.230228 -30.128139 126.360945 -179.994929 75.748167 -0.005232 147.330605 63.183122 74.49523 89.557816 42.522021 111.608338 -128.630926 61.935067 -144.753071 -0.008973 -0.0009 -0.008973 41.784376 -58.238158 37.6535 -36.868809 74.023067 105.880362 -95.196712 18.206865 9.189796
1.3737 57.8569 87.4533 -5.207699 -13.194186 12.860145 -3.993573 7.745647 -169.671995 -3.022664 5.341498 -176.949711 -8.951424 14.193512 -20.563614 24.860834 -24.971482 25.867387 0.002899 -0.0 -2.1e-05 -0.002821 -0.0 0.000249 -155.716792 -4.925102 162.136299 104.391593 32.834866 -127.467806 -120.945424 -7.599302 147.689032 54.207219 -66.23796 40.949556 -121.363944 30.32962 71.958497 174.291245 -33.780303 77.158833 -10.286346 14.664471 6.661599 -66.650313 48.449462 49.934966 -147.863299 25.095108 134.772507 -175.385962 -39.382233 142.891126 -0.006818 3.557388 1.117642 8.947433 12.709088 1.656935 -0.529296 -1.364351 -0.489375 -24.22239 -41.35647 -24.931 -0.162836 -0.990174 0.217557 -43.390338 24.29089 -101.416389 -163.136139 1.636997 -20.842161 171.326439 20.39081 -140.467328 0.490694 0.484955 -0.078834 30.147916 23.544235 -26.993148 13.869647 18.815462 -9.290829 -6.097337 4.549838 -0.013333 -68.987755 -80.152657 -40.581664 163.949208 -6.177504 -143.3032 -0.000286 0.063645 -0.020888 -6.665976 31.041154 -4.967252 163.035798 73.432934 150.718097 161.850223 54.093466 147.700174 -179.993523 75.750528 -0.004431 147.024962 62.924372 -143.921314 -28.561837 -72.4817 150.728506 -78.740299 14.697132 11.069157 179.998522 75.748686 0.001525 -158.996742 7.557803 108.910415 73.84388 -7.923557 -81.930752 114.947415 -2.870716 -27.573321
1.2656 57.80499999999999 86.59559999999999 -5.62526 -15.065834 13.149876 -5.749548 7.991671 137.477756 -8.044587 -0.045989 -123.482239 0.3657 13.042873 31.480636 -14.240815 -27.823796 -33.780834 0.000686 0.0 0.003346 0.000404 -0.0 -0.002374 -157.759805 -21.73646 165.398444 -3.103087 17.905054 -61.918913 111.17763 30.35151 -102.96875 -115.916071 74.050157 95.958328 -166.631555 -4.304697 89.771887 145.167109 -44.611154 94.594902 60.461876 -70.523547 15.711863 12.953433 6.454568 -4.311067 1.281154 -3.803153 -0.679592 -172.086713 -31.342236 144.107424 -71.924995 72.974711 89.77149 -156.260988 -46.162366 -176.086075 12.254877 41.424712 10.277699 -85.714555 -53.659531 -84.494468 -2.46029 -18.216385 3.668369 71.063943 -28.50971 -124.875827 -45.667963 -9.974773 -172.444516 119.696809 67.090428 -96.979148 143.807724 16.627532 -83.798082 -27.883221 -49.089257 -28.66549 117.901226 27.950419 -99.67898 172.167502 -26.258605 -116.30908 160.098776 -4.900855 -142.969635 16.344634 39.861276 -13.277581 69.297606 72.945613 -87.017717 -5.141404 26.92982 0.790714 13.27649 -25.410839 12.631615 146.454759 10.419125 143.269691 -0.002457 -0.000551 -0.000614 -14.573685 -5.463631 -69.886196 -77.594673 18.36356 -20.587174 87.694066 59.580358 0.802564 179.973067 75.749785 0.02216 -156.536988 6.165647 -180.0 62.728188 -68.619487 153.164686 108.030507 -37.476513 -164.780566
1.1414 57.7824 85.7802 -6.05732 -17.048828 13.368371 -4.384627 11.850268 13.155711 2.597149 -10.443929 1.838219 -12.283557 16.868618 -45.035778 36.280927 -11.585381 51.351099 0.001415 0.0 0.002762 0.001597 0.0 0.002562 -48.781876 -86.435503 -70.444348 83.041564 14.292823 -35.552572 34.902773 64.983356 17.825081 -14.379219 42.373576 4.273754 -173.976873 -11.643318 89.880645 114.458308 -63.636714 85.298823 45.281604 -63.865788 4.305055 -56.261955 52.168251 46.406349 -82.839579 61.11064 74.532803 167.848956 -64.068508 132.820967 -145.12089 0.310183 -179.225547 11.540344 20.437267 -6.640322 1.299098 3.491684 1.191248 -145.926677 6.943673 -142.513106 -4.23852 -44.742787 8.648194 112.848905 -65.249055 -118.89993 64.990197 49.247674 108.296808 -144.048239 -65.318056 -123.046134 80.96621 38.73587 -44.498337 -21.75945 -25.818122 -20.697175 162.918987 -37.92953 -122.628899 -2.554823 19.965854 5.054092 -12.028982 -37.299265 3.218294 -167.838983 -64.060921 -133.15704 -0.003174 1.854481 -0.582137 156.653973 -26.311705 -174.930573 145.39753 12.779261 142.020759 79.942633 -52.63779 79.459298 -179.980042 75.749739 -0.016421 136.955786 63.988687 -180.0 73.006886 -51.078459 93.125348 155.252193 2.312389 -133.844746 0.000768 0.00035 -0.000987 49.271343 -58.101891 123.567878 71.132898 25.652439 -92.460614 -50.867483 -50.245642 33.666372
